<svg xmlns="http://www.w3.org/2000/svg" xmlns:ns1="http://sodipodi.sourceforge.net/DTD/sodipodi-0.dtd" xmlns:ns2="http://www.inkscape.org/namespaces/inkscape" id="Capa_1" version="1.1" viewBox="-4.9999999873762135e-06 0.0 273.0 105.0" ns1:docname="Marcas 2025 solo con franjas_01 ANCI_sin_borde.svg" ns2:version="1.4 (1:1.4+202410161351+e7c3feb100)" ns2:export-filename="Marcas 2025 solo con franjas_01 ANCI.png" ns2:export-xdpi="591.31506" ns2:export-ydpi="591.31506" width="272.29999" height="104.3">
  <ns1:namedview id="namedview47" pagecolor="#ffffff" bordercolor="#000000" borderopacity="0.25" ns2:showpageshadow="2" ns2:pageopacity="0.0" ns2:pagecheckerboard="0" ns2:deskcolor="#d1d1d1" ns2:zoom="3.4554973" ns2:cx="136.59394" ns2:cy="57.444699" ns2:window-width="1920" ns2:window-height="1011" ns2:window-x="0" ns2:window-y="0" ns2:window-maximized="1" ns2:current-layer="Capa_1" />
  
  <defs id="defs1">
    <style id="style1">
      .st0 {
        fill: #eb3c46;
      }

      .st1 {
        fill: #fff;
      }

      .st2 {
        fill: #0f69b4;
      }

      .st3 {
        fill: #23a7bd;
      }

      .st4 {
        fill: #172554;
      }
    </style>
  </defs>
  <g id="g11" transform="translate(-25.7,-19.4)">
    <path class="st4" d="m 75,107.9 -7.9,12.5 c -0.6,1 -0.3,2.3 0.7,2.9 0.3,0.2 0.7,0.3 1.1,0.3 0.7,0 1.4,-0.3 1.8,-1 l 7.7,-12.3 c -1.3,-0.5 -2.5,-1.4 -3.4,-2.4 z" id="path1" />
    <path class="st4" d="m 95.4,30.2 c -1,-0.6 -2.3,-0.3 -2.9,0.7 l -7.7,12.2 c 1.3,0.5 2.5,1.4 3.4,2.4 L 96,33.1 c 0.6,-1 0.3,-2.3 -0.7,-2.9 z" id="path2" />
    <path class="st4" d="M 107.2,123.6 H 68.9 c -1.2,0 -2.1,-0.9 -2.1,-2.1 0,-1.2 0.9,-2.1 2.1,-2.1 H 106 L 132.8,76.7 105.3,33.1 c -0.6,-1 -0.3,-2.3 0.7,-2.9 1,-0.6 2.3,-0.3 2.9,0.7 l 28.2,44.8 c 0.4,0.7 0.4,1.5 0,2.2 l -28.2,44.8 c -0.4,0.6 -1.1,1 -1.8,1 z" id="path3" />
    <path class="st4" d="m 56,123.6 c -0.7,0 -1.4,-0.3 -1.8,-1 L 26,77.8 c -0.4,-0.7 -0.4,-1.5 0,-2.2 L 54.2,30.8 c 0.4,-0.6 1.1,-1 1.8,-1 h 38.3 c 1.2,0 2.1,0.9 2.1,2.1 0,1.2 -0.9,2.1 -2.1,2.1 H 57.2 l -26.8,42.7 27.5,43.6 c 0.6,1 0.3,2.3 -0.7,2.9 -0.3,0.2 -0.7,0.3 -1.1,0.3 z" id="path4" />
    <path class="st4" d="m 94.9,53.5 c -0.4,0 -0.7,0 -1.1,-0.3 -1,-0.6 -1.3,-1.9 -0.7,-2.9 l 12.2,-19.5 c 0.6,-1 1.9,-1.3 2.9,-0.7 1,0.6 1.3,1.9 0.7,2.9 l -10.6,16.8 -1.6,2.6 c -0.4,0.7 -1.1,1 -1.8,1 z" id="path5" />
    <path class="st4" d="m 81.6,45 c -3.5,0 -6.4,2.9 -6.4,6.4 0,3.5 2.9,6.4 6.4,6.4 3.5,0 6.3,-2.9 6.3,-6.4 0,-3.5 -2.8,-6.4 -6.3,-6.4 z m 0,9.3 c -1.6,0 -2.9,-1.3 -2.9,-2.9 0,-1.6 1.3,-2.9 2.9,-2.9 1.6,0 2.8,1.3 2.8,2.9 0,1.6 -1.2,2.9 -2.8,2.9 z" id="path6" />
    <path class="st4" d="m 56.5,123.6 c -0.4,0 -0.8,-0.1 -1.1,-0.3 -1,-0.6 -1.3,-1.9 -0.7,-2.9 l 7,-11.2 4.9,-8.1 c 0.6,-1 1.9,-1.3 2.9,-0.7 1,0.6 1.3,1.9 0.7,2.9 l -4.9,8.1 -7.1,11.2 c -0.4,0.6 -1.1,1 -1.8,1 z" id="path7" />
    <path class="st4" d="m 81.6,95.6 c -3.5,0 -6.2,2.9 -6.2,6.4 0,3.5 2.9,6.4 6.4,6.4 3.5,0 6.4,-2.9 6.4,-6.4 0,-3.5 -3,-6.4 -6.5,-6.4 z m 0.1,9.3 c -1.6,0 -2.9,-1.3 -2.9,-2.9 0,-1.6 1.2,-2.9 2.7,-2.9 1.5,0 3,1.3 3,2.9 0,1.6 -1.3,2.9 -2.9,2.9 z" id="path8" />
    <path class="st3" d="m 81.6,87.1 c -5.5,0 -10.1,-4.5 -10.1,-10.1 0,-5.6 4.6,-10.1 10.1,-10.1 5.5,0 10,4.5 10,10.1 0,5.6 -4.4,10.1 -10,10.1 z" id="path9" />
    <path class="st4" d="m 55.1,59 v 7.6 c 0,2.2 -1.4,4.2 -3.5,4.9 l -3.5,1.2 v 8.7 l 3.5,1.2 c 2.1,0.7 3.5,2.7 3.5,4.9 v 7.6 c 0,5.8 4.7,10.5 10.5,10.5 h 2.7 l 0.2,-5.2 h -2.9 c -2.9,0 -5.3,-2.4 -5.3,-5.3 v -7.6 c 0,-4.5 -2.8,-8.4 -7.1,-9.8 v -1.1 c 4.2,-1.4 7.1,-5.4 7.1,-9.8 v -7.6 c 0,-2.9 2.4,-5.3 5.3,-5.3 H 75.9 V 48.7 H 65.6 c -5.8,0 -10.5,4.7 -10.5,10.5 z" id="path10" />
    <path class="st4" d="m 111.6,71.2 c -2.1,-0.7 -3.5,-2.7 -3.5,-4.9 v -7.6 c 0,-5.8 -4.7,-10.5 -10.5,-10.5 h -3.2 l 0.8,5.2 h 2.5 c 2.9,0 5.3,2.4 5.3,5.3 v 7.6 c 0,4.5 2.8,8.4 7.1,9.8 v 1.1 c -4.2,1.4 -7.1,5.4 -7.1,9.8 v 7.6 c 0,2.9 -2.4,5.3 -5.3,5.3 H 86.6 l -1,5.2 h 12.1 c 5.8,0 10.5,-4.7 10.5,-10.5 V 87 c 0,-2.2 1.4,-4.2 3.5,-4.9 l 3.5,-1.2 V 72.2 L 111.7,71 Z" id="path11" />
  </g>
  <g id="g12" transform="translate(-25.7,-19.4)">
    <rect class="st2" x="150.5" y="121.8" width="73.800003" height="1.8" id="rect11" />
    <rect class="st0" x="224.2" y="121.8" width="73.800003" height="1.8" id="rect12" />
  </g>
  <path class="st4" d="m 152.6,44.6 h -15.4 l -2.5,7.3 h -10.5 l 15,-41.4 h 11.7 l 15,41.4 h -10.7 l -2.5,-7.3 z m -2.6,-7.8 -5.1,-15.1 -5.1,15.1 z" id="path12" />
  <path class="st4" d="M 207.3,51.9 H 197.2 L 180.3,26.4 V 51.9 H 170.2 V 10.5 h 10.1 l 16.9,25.6 V 10.5 h 10.1 z" id="path13" />
  <path class="st4" d="m 215.5,20.2 c 1.8,-3.2 4.2,-5.7 7.4,-7.5 3.2,-1.8 6.7,-2.7 10.8,-2.7 4.1,0 9.1,1.3 12.6,3.9 3.5,2.6 5.8,6.1 7,10.6 h -11.1 c -0.8,-1.7 -2,-3 -3.5,-3.9 -1.5,-0.9 -3.2,-1.4 -5.2,-1.4 -3.1,0 -5.6,1.1 -7.5,3.2 -1.9,2.2 -2.9,5 -2.9,8.7 0,3.7 1,6.5 2.9,8.7 1.9,2.2 4.4,3.2 7.5,3.2 3.1,0 3.6,-0.5 5.2,-1.4 1.5,-0.9 2.7,-2.2 3.5,-3.9 h 11.1 c -1.2,4.5 -3.5,8 -7,10.6 -3.5,2.6 -7.7,3.9 -12.6,3.9 -4.9,0 -7.6,-0.9 -10.8,-2.7 -3.2,-1.8 -5.6,-4.3 -7.4,-7.5 -1.8,-3.2 -2.7,-6.8 -2.7,-10.9 0,-4.1 0.9,-7.7 2.7,-10.9 z" id="path14" />
  <path id="path15" class="st4" d="m 259.39961,16.822656 v 35.078125 h 10.09961 V 17.047266 A 8.6000004,8.6000004 0 0 1 264.60078,18.6 8.6000004,8.6000004 0 0 1 259.39961,16.822656 Z" />
  <path class="st3" d="m 264.6,15.4 c -4.2,0 -7.7,-3.4 -7.7,-7.7 0,-4.2 3.4,-7.7 7.7,-7.7 4.3,0 7.7,3.4 7.7,7.7 0,4.2 -3.4,7.7 -7.7,7.7 z m 0,-11.2 c -1.9,0 -3.5,1.6 -3.5,3.5 0,1.9 1.6,3.5 3.5,3.5 1.9,0 3.5,-1.6 3.5,-3.5 0,-1.9 -1.6,-3.5 -3.5,-3.5 z" id="path16" />
  <g id="g47" transform="translate(-25.7,-19.4)">
    <path class="st4" d="m 154.1,82.2 h 1.1 l 4.7,9.9 h -1.2 l -0.9,-1.9 h -6.1 l -0.9,1.9 h -1.3 l 4.7,-9.9 z m 3.2,7 -1.8,-3.9 c -0.3,-0.7 -0.7,-1.7 -0.8,-1.8 0,0.1 -0.4,1.1 -0.8,1.8 l -1.8,3.9 z" id="path17" />
    <path class="st4" d="m 160.6,87.1 c 0,-2.8 2.2,-5.1 5.2,-5.1 3,0 2.5,0.5 3.4,1.3 l -0.7,0.8 c -0.7,-0.7 -1.6,-1 -2.7,-1 -2.2,0 -3.9,1.8 -3.9,4 0,2.2 1.7,4 3.9,4 2.2,0 2.4,-0.6 3.1,-1.6 v -2.1 h -2.2 v -1 h 3.4 V 90 c -0.9,1.4 -2.5,2.2 -4.3,2.2 -3,0 -5.2,-2.3 -5.2,-5.1 z" id="path18" />
    <path class="st4" d="m 172.3,82.2 h 7.5 v 1.1 h -6.3 v 3 h 5.9 v 1.1 h -5.9 v 3.7 h 6.5 v 1.1 h -7.7 v -9.9 z" id="path19" />
    <path class="st4" d="m 181.7,82.2 h 1.2 l 4.9,6.4 c 0.5,0.7 1.1,1.6 1.1,1.6 v -8.1 h 1.2 V 92 h -1.3 l -4.9,-6.3 C 183.3,84.9 182.8,84 182.8,84 v 8 h -1.2 v -9.9 z" id="path20" />
    <path class="st4" d="m 192,87.1 c 0,-2.8 2.2,-5.1 5.2,-5.1 3,0 2.5,0.5 3.4,1.3 l -0.7,0.8 c -0.7,-0.6 -1.6,-1 -2.6,-1 -2.3,0 -4,1.8 -4,4 0,2.2 1.7,4 3.9,4 2.2,0 2.2,-0.5 2.9,-1.2 l 0.8,0.8 c -0.9,0.9 -2.2,1.5 -3.7,1.5 -3,0 -5.2,-2.3 -5.2,-5.1 z" id="path21" />
    <path class="st4" d="m 202.3,82.2 h 1.2 v 9.9 h -1.2 z" id="path22" />
    <path class="st4" d="m 209.6,82.2 h 1.1 l 4.7,9.9 h -1.2 l -0.9,-1.9 h -6.1 l -0.9,1.9 H 205 l 4.7,-9.9 z m 3.1,7 -1.8,-3.9 c -0.3,-0.7 -0.7,-1.7 -0.8,-1.8 0,0.1 -0.4,1.1 -0.8,1.8 l -1.8,3.9 z" id="path23" />
    <path class="st4" d="m 219.5,82.2 h 1.2 l 4.9,6.4 c 0.5,0.7 1.1,1.6 1.1,1.6 v -8.1 h 1.2 V 92 h -1.3 l -4.9,-6.3 C 221.1,84.9 220.6,84 220.6,84 v 8 h -1.2 v -9.9 z" id="path24" />
    <path class="st4" d="m 234,82.2 h 1.1 l 4.7,9.9 h -1.2 l -0.9,-1.9 h -6.1 l -0.9,1.9 h -1.3 l 4.7,-9.9 z m 3.2,7 -1.8,-3.9 c -0.3,-0.7 -0.7,-1.7 -0.8,-1.8 0,0.1 -0.4,1.1 -0.8,1.8 l -1.8,3.9 z" id="path25" />
    <path class="st4" d="m 240.5,87.1 c 0,-2.8 2.2,-5.1 5.2,-5.1 3,0 2.5,0.5 3.4,1.3 l -0.7,0.8 c -0.7,-0.6 -1.6,-1 -2.6,-1 -2.3,0 -4,1.8 -4,4 0,2.2 1.7,4 3.9,4 2.2,0 2.2,-0.5 2.9,-1.2 l 0.8,0.8 c -0.9,0.9 -2.2,1.5 -3.7,1.5 -3,0 -5.2,-2.3 -5.2,-5.1 z" id="path26" />
    <path class="st4" d="m 250.8,82.2 h 1.2 v 9.9 h -1.2 z" id="path27" />
    <path class="st4" d="m 253.9,87.1 c 0,-2.8 2.2,-5.1 5.2,-5.1 3,0 5.2,2.3 5.2,5.1 0,2.8 -2.2,5.1 -5.2,5.1 -3,0 -5.2,-2.3 -5.2,-5.1 z m 9.1,0 c 0,-2.2 -1.7,-4 -3.9,-4 -2.2,0 -3.9,1.8 -3.9,4 0,2.2 1.7,4 3.9,4 2.2,0 3.9,-1.8 3.9,-4 z" id="path28" />
    <path class="st4" d="m 266.1,82.2 h 1.2 l 4.9,6.4 c 0.5,0.7 1.1,1.6 1.1,1.6 v -8.1 h 1.2 V 92 h -1.3 l -4.9,-6.3 C 267.7,84.9 267.2,84 267.2,84 v 8 H 266 v -9.9 z" id="path29" />
    <path class="st4" d="m 280.6,82.2 h 1.1 l 4.7,9.9 h -1.2 l -0.9,-1.9 h -6.1 l -0.9,1.9 H 276 l 4.7,-9.9 z m 3.1,7 -1.8,-3.9 c -0.3,-0.7 -0.7,-1.7 -0.8,-1.8 0,0.1 -0.4,1.1 -0.8,1.8 l -1.8,3.9 z" id="path30" />
    <path class="st4" d="m 287.7,82.2 h 1.2 V 91 h 6.3 v 1.1 h -7.5 z" id="path31" />
    <path class="st4" d="m 150.5,97.2 h 3.8 c 3.2,0 5.2,2.2 5.2,5 0,2.8 -2,5 -5.2,5 h -3.8 v -9.9 z m 3.6,8.8 c 2.4,0 4,-1.7 4,-3.9 0,-2.2 -1.6,-3.9 -4,-3.9 h -2.5 v 7.8 z" id="path32" />
    <path class="st4" d="m 161,97.2 h 7.5 v 1.1 h -6.3 v 3 h 5.9 v 1.1 h -5.9 v 3.7 h 6.5 v 1.1 H 161 v -9.9 z" id="path33" />
    <path class="st4" d="m 172.2,102.1 c 0,-2.8 2.2,-5.1 5.2,-5.1 3,0 2.5,0.5 3.4,1.3 l -0.7,0.8 c -0.7,-0.6 -1.6,-1 -2.6,-1 -2.3,0 -4,1.8 -4,4 0,2.2 1.7,4 3.9,4 2.2,0 2.2,-0.5 2.9,-1.2 l 0.8,0.8 c -0.9,0.9 -2.2,1.5 -3.7,1.5 -3,0 -5.2,-2.3 -5.2,-5.1 z" id="path34" />
    <path class="st4" d="m 182.1,97.2 h 1.2 v 9.9 h -1.2 z" id="path35" />
    <path class="st4" d="m 185.3,97.2 h 4.5 c 1.7,0 2.8,0.8 2.8,2.4 0,1.6 -0.5,1.6 -1.1,1.8 1.1,0.2 2.1,1.3 2.1,2.7 0,1.4 -1.5,3 -3.7,3 h -4.6 z m 4.6,3.8 c 0.9,0 1.4,-0.6 1.4,-1.4 0,-0.8 -0.6,-1.4 -1.6,-1.4 h -3.2 v 2.8 z m -0.1,5 c 1.5,0 2.5,-0.7 2.5,-2 0,-1.3 -0.9,-2 -2.2,-2 h -3.6 v 3.9 h 3.3 z" id="path36" />
    <path class="st4" d="m 195.1,97.2 h 7.5 v 1.1 h -6.3 v 3 h 5.9 v 1.1 h -5.9 v 3.7 h 6.5 v 1.1 h -7.7 v -9.9 z" id="path37" />
    <path class="st4" d="m 204.2,97.2 h 4.1 c 2.8,0 4.3,1.7 4.3,3.7 0,2 -0.8,2.7 -2.3,3.3 l 2.4,2.9 h -1.5 l -2,-2.6 c -0.3,0 -0.6,0 -1,0 h -2.7 v 2.5 h -1.2 v -9.9 z m 4.1,6.4 c 1.7,0 2.9,-1.2 2.9,-2.6 0,-1.4 -1.2,-2.7 -2.9,-2.7 h -3 v 5.3 h 2.9 z" id="path38" />
    <path class="st4" d="m 213.5,105.7 0.5,-0.9 c 0.8,0.8 1.9,1.3 3.4,1.3 1.5,0 2.6,-0.6 2.6,-1.8 0,-1.2 -1.3,-1.5 -2.6,-1.8 -1.8,-0.4 -3.6,-1 -3.6,-2.8 0,-1.8 1.7,-2.7 3.5,-2.7 1.8,0 2.3,0.3 3.3,1.1 l -0.5,0.9 c -0.9,-0.7 -1.9,-0.9 -2.8,-0.9 -0.9,0 -2.2,0.5 -2.2,1.6 0,1.1 1.1,1.4 2.5,1.7 1.8,0.5 3.7,1.1 3.7,2.9 0,1.8 -2,2.9 -3.9,2.9 -1.9,0 -3.2,-0.8 -3.9,-1.5 z" id="path39" />
    <path class="st4" d="m 222.8,97.2 h 7.5 v 1.1 H 224 v 3 h 5.9 v 1.1 H 224 v 3.7 h 6.5 v 1.1 h -7.7 v -9.9 z" id="path40" />
    <path class="st4" d="m 231.2,102.1 c 0,-2.8 2.2,-5.1 5.2,-5.1 3,0 2.5,0.5 3.4,1.3 l -0.7,0.8 c -0.7,-0.7 -1.6,-1 -2.7,-1 -2.2,0 -3.9,1.8 -3.9,4 0,2.2 1.7,4 3.9,4 2.2,0 2.4,-0.6 3.1,-1.6 v -2.1 h -2.2 v -1 h 3.4 v 3.6 c -0.9,1.4 -2.5,2.2 -4.3,2.2 -3,0 -5.2,-2.3 -5.2,-5.1 z" id="path41" />
    <path class="st4" d="m 242.4,103.2 v -6 h 1.2 v 5.9 c 0,1.8 1,3 2.9,3 1.9,0 2.9,-1.2 2.9,-3 v -5.9 h 1.2 v 6 c 0,2.5 -1.5,4.1 -4.1,4.1 -2.6,0 -4.1,-1.6 -4.1,-4.1 z" id="path42" />
    <path class="st4" d="m 252.4,97.2 h 4.1 c 2.8,0 4.3,1.7 4.3,3.7 0,2 -0.8,2.7 -2.3,3.3 l 2.4,2.9 h -1.5 l -2,-2.6 c -0.3,0 -0.6,0 -1,0 h -2.7 v 2.5 h -1.2 v -9.9 z m 4.2,6.4 c 1.7,0 2.9,-1.2 2.9,-2.6 0,-1.4 -1.2,-2.7 -2.9,-2.7 h -3 v 5.3 h 2.9 z" id="path43" />
    <path class="st4" d="m 262.2,97.2 h 1.2 v 9.9 h -1.2 z" id="path44" />
    <path class="st4" d="m 265.4,97.2 h 3.8 c 3.2,0 5.2,2.2 5.2,5 0,2.8 -2,5 -5.2,5 h -3.8 v -9.9 z m 3.7,8.8 c 2.4,0 4,-1.7 4,-3.9 0,-2.2 -1.6,-3.9 -4,-3.9 h -2.5 v 7.8 z" id="path45" />
    <path class="st4" d="m 279.3,97.2 h 1.1 l 4.7,9.9 h -1.2 l -0.9,-1.9 h -6.1 l -0.9,1.9 h -1.3 l 4.7,-9.9 z m 3.2,7 -1.8,-3.9 c -0.3,-0.7 -0.7,-1.7 -0.8,-1.8 0,0.1 -0.4,1.1 -0.8,1.8 l -1.8,3.9 z" id="path46" />
    <path class="st4" d="m 286.1,97.2 h 3.8 c 3.2,0 5.2,2.2 5.2,5 0,2.8 -2,5 -5.2,5 h -3.8 v -9.9 z m 3.7,8.8 c 2.4,0 4,-1.7 4,-3.9 0,-2.2 -1.6,-3.9 -4,-3.9 h -2.5 v 7.8 z" id="path47" />
  </g>
</svg>